<?xml version="1.0" encoding="UTF-8"?>
<!DOCTYPE svg PUBLIC "-//W3C//DTD SVG 1.1//EN" "http://www.w3.org/Graphics/SVG/1.1/DTD/svg11.dtd">
<!-- Creator: CorelDRAW 2021 (64-Bit) -->
<svg xmlns="http://www.w3.org/2000/svg" xml:space="preserve" width="4000px" height="4546px" version="1.1" style="shape-rendering:geometricPrecision; text-rendering:geometricPrecision; image-rendering:optimizeQuality; fill-rule:evenodd; clip-rule:evenodd"
viewBox="0 0 1200.89 1367.36"
 xmlns:xlink="http://www.w3.org/1999/xlink"
 xmlns:xodm="http://www.corel.com/coreldraw/odm/2003">
 <defs>
  <style type="text/css">
   <![CDATA[
    .fil1 {fill:url(#id0)}
    .fil0 {fill:url(#id1)}
   ]]>
  </style>
  <linearGradient id="id0" gradientUnits="userSpaceOnUse" x1="355.04" y1="1244.29" x2="411.29" y2="513.1">
   <stop offset="0" style="stop-opacity:1; stop-color:#FE7E00"/>
   <stop offset="0.270588" style="stop-opacity:1; stop-color:#F79B05"/>
   <stop offset="1" style="stop-opacity:1; stop-color:#F0B90B"/>
  </linearGradient>
  <linearGradient id="id1" gradientUnits="userSpaceOnUse" xlink:href="#id0" x1="602.03" y1="1580.31" x2="670.96" y2="674.74">
  </linearGradient>
 </defs>
 <g id="Layer_x0020_1">
  <metadata id="CorelCorpID_0Corel-Layer"/>
  <g id="_1772221190400">
   <path class="fil0" d="M156.92 1365.04l170.05 2.32c81.92,-136.22 579.96,-1021.24 662.56,-1113.61 129.85,176.5 197.54,399.15 50.82,636.79 -84.71,137.23 -236.45,227.81 -406.59,236.84 -87.24,4.63 -120.41,-21.56 -126.41,69.44 446.48,45.84 746.94,-308.89 685.6,-699.43 -23.42,-149.15 -80.59,-228.09 -164.11,-320.48 23.93,-46.72 48.36,-83.05 61.53,-135.8l-190.87 -1.69 -561.17 1004.38c-58.88,103.42 -139.16,223.69 -181.41,321.24z"/>
   <path class="fil1" d="M231.92 1072.38l255.46 -416.12c76.58,-131.25 200.08,-312.48 252.85,-447.17 -213.95,0.03 -141.28,-65.69 -344.68,288.56 -44.19,76.97 -182.92,368.1 -246.22,391.85 -2.7,-108.43 219.57,-394.16 271.2,-528.36 -189.45,-2.06 -157.92,-43.09 -273.54,172.47 -7.85,14.63 -15.71,31.59 -23.9,43.32 -3.06,4.39 -12.74,17.12 -16.28,21.21 -26.08,30.11 -1.89,6.83 -32.34,30.83 4.36,-225.82 103.59,-376.93 241.53,-462 132.14,-81.49 257.11,-103.45 406.68,-67.88 97.21,23.11 58.33,35.36 111.42,-29.27 -27.77,-38.49 -95.38,-59.06 -170.99,-66.23 -120.84,-11.45 -212.16,4.03 -320.47,52.85 -118.7,53.53 -202.06,139.82 -258.14,231.07 -180.04,292.94 -44.7,655.22 147.42,784.87z"/>
  </g>
 </g>
</svg>
