<svg width="120" height="27" viewBox="0 0 120 27" fill="none" xmlns="http://www.w3.org/2000/svg">
<path d="M12.9205 9.7642L9.6392 10.1222C9.5464 9.79072 9.384 9.47917 9.15199 9.1875C8.92661 8.89583 8.62169 8.66051 8.23722 8.48153C7.85275 8.30256 7.3821 8.21307 6.82528 8.21307C6.07623 8.21307 5.4465 8.37547 4.93608 8.70028C4.43229 9.02509 4.18371 9.44602 4.19034 9.96307C4.18371 10.4072 4.34612 10.7685 4.67756 11.0469C5.01563 11.3253 5.57244 11.554 6.34801 11.733L8.95312 12.2898C10.3982 12.6013 11.4721 13.0952 12.1747 13.7713C12.884 14.4474 13.242 15.3324 13.2486 16.4261C13.242 17.3873 12.9602 18.2358 12.4034 18.9716C11.8532 19.7008 11.0876 20.2708 10.1065 20.6818C9.12547 21.0928 7.99858 21.2983 6.72585 21.2983C4.85653 21.2983 3.3518 20.9072 2.21165 20.125C1.0715 19.3362 0.392045 18.2391 0.173295 16.8338L3.68324 16.4957C3.84233 17.1851 4.1804 17.7055 4.69744 18.0568C5.21449 18.4081 5.88731 18.5838 6.71591 18.5838C7.57102 18.5838 8.2571 18.4081 8.77415 18.0568C9.29782 17.7055 9.55966 17.2713 9.55966 16.7543C9.55966 16.3168 9.39063 15.9555 9.05256 15.6705C8.72112 15.3854 8.20407 15.1667 7.50142 15.0142L4.89631 14.4673C3.43134 14.1624 2.34754 13.6487 1.64489 12.9261C0.942235 12.197 0.594224 11.2756 0.600852 10.1619C0.594224 9.22064 0.849432 8.4053 1.36648 7.71591C1.89015 7.01989 2.616 6.48295 3.54403 6.10511C4.47869 5.72064 5.55587 5.52841 6.77557 5.52841C8.56534 5.52841 9.97396 5.90956 11.0014 6.67188C12.0355 7.43419 12.6752 8.46496 12.9205 9.7642ZM15.6566 21V5.72727H19.097V8.32244H19.2759C19.5941 7.44744 20.1211 6.76468 20.8569 6.27415C21.5927 5.77699 22.471 5.52841 23.4918 5.52841C24.5259 5.52841 25.3976 5.7803 26.1069 6.28409C26.8228 6.78125 27.3266 7.4607 27.6183 8.32244H27.7774C28.1154 7.47396 28.6855 6.79782 29.4876 6.29403C30.2963 5.78362 31.2542 5.52841 32.3612 5.52841C33.7665 5.52841 34.9132 5.97254 35.8015 6.86079C36.6898 7.74905 37.1339 9.04498 37.1339 10.7486V21H33.5245V11.3054C33.5245 10.3575 33.2726 9.66477 32.7688 9.22727C32.265 8.78314 31.6486 8.56108 30.9194 8.56108C30.051 8.56108 29.3716 8.83286 28.8811 9.37642C28.3971 9.91335 28.1552 10.6127 28.1552 11.4744V21H24.6254V11.1562C24.6254 10.3674 24.3867 9.73769 23.9095 9.26705C23.4388 8.7964 22.8223 8.56108 22.06 8.56108C21.543 8.56108 21.0723 8.69365 20.6481 8.95881C20.2239 9.21733 19.8858 9.58523 19.6339 10.0625C19.382 10.5331 19.2561 11.0833 19.2561 11.7131V21H15.6566ZM42.4429 21.2188C41.8396 21.2188 41.3226 21.0066 40.8917 20.5824C40.4608 20.1581 40.2487 19.6411 40.2554 19.0312C40.2487 18.4347 40.4608 17.9242 40.8917 17.5C41.3226 17.0758 41.8396 16.8636 42.4429 16.8636C43.0262 16.8636 43.5333 17.0758 43.9642 17.5C44.4017 17.9242 44.6237 18.4347 44.6304 19.0312C44.6237 19.4356 44.5177 19.8035 44.3122 20.1349C44.1133 20.4664 43.8482 20.7315 43.5167 20.9304C43.1919 21.1226 42.834 21.2188 42.4429 21.2188ZM42.4429 10.321C41.8396 10.321 41.3226 10.1089 40.8917 9.68466C40.4608 9.25379 40.2487 8.73674 40.2554 8.13352C40.2487 7.53693 40.4608 7.02651 40.8917 6.60227C41.3226 6.1714 41.8396 5.95597 42.4429 5.95597C43.0262 5.95597 43.5333 6.1714 43.9642 6.60227C44.4017 7.02651 44.6237 7.53693 44.6304 8.13352C44.6237 8.53125 44.5177 8.89583 44.3122 9.22727C44.1133 9.55871 43.8482 9.82386 43.5167 10.0227C43.1919 10.2216 42.834 10.321 42.4429 10.321ZM54.2099 12.6974C54.2099 15.1766 53.8785 17.4602 53.2156 19.5483C52.5593 21.6297 51.5783 23.5554 50.2724 25.3253H46.8818C47.3922 24.669 47.8629 23.867 48.2937 22.919C48.7312 21.9711 49.1091 20.9304 49.4272 19.7969C49.7521 18.6634 50.0039 17.4901 50.1829 16.277C50.3685 15.0639 50.4613 13.8707 50.4613 12.6974C50.4613 11.1264 50.3022 9.53551 49.9841 7.92472C49.6725 6.31392 49.245 4.81913 48.7014 3.44034C48.1645 2.06155 47.5579 0.934659 46.8818 0.0596592H50.2724C51.5783 1.82955 52.5593 3.75852 53.2156 5.84659C53.8785 7.92803 54.2099 10.2116 54.2099 12.6974ZM65.0075 21.2983C63.4763 21.2983 62.1538 20.9801 61.0402 20.3438C59.9332 19.7008 59.0814 18.7926 58.4848 17.6193C57.8882 16.4394 57.5899 15.0507 57.5899 13.4531C57.5899 11.8821 57.8882 10.5033 58.4848 9.31676C59.088 8.12358 59.9299 7.19555 61.0104 6.53267C62.0908 5.86316 63.3603 5.52841 64.8186 5.52841C65.7599 5.52841 66.6481 5.68087 67.4834 5.98579C68.3252 6.28409 69.0676 6.74811 69.7106 7.37784C70.3603 8.00758 70.8707 8.80966 71.2419 9.78409C71.6131 10.7519 71.7987 11.9053 71.7987 13.2443V14.348H59.2802V11.9219H68.3484C68.3418 11.2325 68.1926 10.6193 67.901 10.0824C67.6093 9.53883 67.2016 9.11127 66.678 8.79972C66.1609 8.48816 65.5577 8.33239 64.8683 8.33239C64.1325 8.33239 63.4862 8.51136 62.9294 8.86932C62.3726 9.22064 61.9384 9.68466 61.6268 10.2614C61.3219 10.8314 61.1661 11.4579 61.1595 12.1406V14.2585C61.1595 15.1468 61.3219 15.9091 61.6467 16.5455C61.9715 17.1752 62.4256 17.6591 63.0089 17.9972C63.5923 18.3286 64.275 18.4943 65.0572 18.4943C65.5809 18.4943 66.0549 18.4214 66.4791 18.2756C66.9033 18.1231 67.2712 17.901 67.5828 17.6094C67.8943 17.3177 68.1297 16.9564 68.2888 16.5256L71.6496 16.9034C71.4374 17.7917 71.0331 18.5672 70.4365 19.2301C69.8465 19.8864 69.0908 20.3968 68.1694 20.7614C67.248 21.1193 66.1941 21.2983 65.0075 21.2983ZM74.2838 26.7273V5.72727H77.8236V8.25284H78.0324C78.218 7.88163 78.4798 7.48722 78.8179 7.0696C79.156 6.64536 79.6133 6.28409 80.1901 5.98579C80.7668 5.68087 81.5026 5.52841 82.3974 5.52841C83.5774 5.52841 84.6413 5.83002 85.5892 6.43324C86.5437 7.02983 87.2994 7.91477 87.8562 9.08807C88.4197 10.2547 88.7014 11.6866 88.7014 13.3835C88.7014 15.0606 88.4263 16.4858 87.8761 17.6591C87.3259 18.8324 86.5769 19.7273 85.629 20.3438C84.6811 20.9602 83.6072 21.2685 82.4074 21.2685C81.5324 21.2685 80.8065 21.1226 80.2298 20.831C79.6531 20.5393 79.1891 20.188 78.8378 19.777C78.4931 19.3594 78.2246 18.965 78.0324 18.5938H77.8832V26.7273H74.2838ZM77.8136 13.3636C77.8136 14.3513 77.9528 15.2164 78.2312 15.9588C78.5163 16.7012 78.924 17.2812 79.4543 17.6989C79.9912 18.1098 80.6408 18.3153 81.4031 18.3153C82.1986 18.3153 82.8648 18.1032 83.4017 17.679C83.9386 17.2481 84.343 16.6615 84.6148 15.919C84.8932 15.17 85.0324 14.3182 85.0324 13.3636C85.0324 12.4157 84.8965 11.5739 84.6247 10.8381C84.3529 10.1023 83.9486 9.52557 83.4116 9.10795C82.8747 8.69034 82.2052 8.48153 81.4031 8.48153C80.6342 8.48153 79.9812 8.68371 79.4443 9.08807C78.9074 9.49242 78.4997 10.0592 78.2213 10.7884C77.9495 11.5175 77.8136 12.3759 77.8136 13.3636ZM95.6187 21.3082C94.6509 21.3082 93.7792 21.1359 93.0036 20.7912C92.2347 20.4399 91.6248 19.9228 91.1741 19.2401C90.73 18.5573 90.5079 17.7154 90.5079 16.7145C90.5079 15.8527 90.667 15.1402 90.9852 14.5767C91.3034 14.0133 91.7375 13.5625 92.2877 13.2244C92.8379 12.8864 93.4577 12.6312 94.1471 12.4588C94.8431 12.2798 95.5623 12.1506 96.3048 12.071C97.1997 11.9782 97.9255 11.8954 98.4823 11.8224C99.0391 11.7429 99.4435 11.6236 99.6954 11.4645C99.9539 11.2988 100.083 11.0436 100.083 10.6989V10.6392C100.083 9.89015 99.8611 9.31013 99.417 8.89915C98.9729 8.48816 98.3332 8.28267 97.498 8.28267C96.6163 8.28267 95.917 8.47491 95.3999 8.85938C94.8895 9.24384 94.5448 9.69792 94.3659 10.2216L91.0051 9.74432C91.2702 8.81629 91.7077 8.04072 92.3176 7.41761C92.9274 6.78788 93.6731 6.31723 94.5548 6.00568C95.4364 5.6875 96.4108 5.52841 97.4781 5.52841C98.2139 5.52841 98.9463 5.61458 99.6755 5.78693C100.405 5.95928 101.071 6.24432 101.674 6.64204C102.277 7.03314 102.761 7.56676 103.126 8.2429C103.497 8.91903 103.683 9.7642 103.683 10.7784V21H100.222V18.902H100.103C99.8843 19.3262 99.5761 19.724 99.1784 20.0952C98.7873 20.4598 98.2934 20.7547 97.6968 20.9801C97.1069 21.1989 96.4141 21.3082 95.6187 21.3082ZM96.5534 18.6634C97.2759 18.6634 97.9023 18.5208 98.4326 18.2358C98.9629 17.9441 99.3706 17.5597 99.6556 17.0824C99.9473 16.6051 100.093 16.0848 100.093 15.5213V13.7216C99.9804 13.8144 99.7882 13.9006 99.5164 13.9801C99.2513 14.0597 98.953 14.1293 98.6215 14.1889C98.2901 14.2486 97.962 14.3016 97.6372 14.348C97.3123 14.3944 97.0306 14.4342 96.792 14.4673C96.2551 14.5402 95.7745 14.6596 95.3502 14.8253C94.926 14.991 94.5912 15.223 94.346 15.5213C94.1007 15.813 93.9781 16.1908 93.9781 16.6548C93.9781 17.3177 94.22 17.8182 94.7039 18.1562C95.1878 18.4943 95.8043 18.6634 96.5534 18.6634ZM108.432 26.7273C107.942 26.7273 107.488 26.6875 107.07 26.608C106.659 26.535 106.331 26.4489 106.086 26.3494L106.921 23.5455C107.445 23.6979 107.912 23.7708 108.323 23.7642C108.734 23.7576 109.095 23.6283 109.407 23.3764C109.725 23.1312 109.993 22.7202 110.212 22.1435L110.52 21.3182L104.982 5.72727H108.8L112.32 17.2614H112.479L116.009 5.72727H119.837L113.722 22.8494C113.437 23.6581 113.059 24.3509 112.589 24.9276C112.118 25.5109 111.541 25.955 110.858 26.2599C110.182 26.5715 109.374 26.7273 108.432 26.7273Z" fill="#17193D"/>
</svg>
