<?xml version="1.0" encoding="UTF-8"?>
<!DOCTYPE svg PUBLIC "-//W3C//DTD SVG 1.1//EN" "http://www.w3.org/Graphics/SVG/1.1/DTD/svg11.dtd">
<!-- Creator: CorelDRAW 2021 (64-Bit) -->
<svg xmlns="http://www.w3.org/2000/svg" xml:space="preserve" width="4000px" height="4000px" version="1.1" style="shape-rendering:geometricPrecision; text-rendering:geometricPrecision; image-rendering:optimizeQuality; fill-rule:evenodd; clip-rule:evenodd"
viewBox="0 0 1367.53 1366.91"
 xmlns:xlink="http://www.w3.org/1999/xlink"
 xmlns:xodm="http://www.corel.com/coreldraw/odm/2003">
 <defs>
  <style type="text/css">
   <![CDATA[
    .fil0 {fill:#2AA2DB}
    .fil3 {fill:#A8CBE2}
    .fil2 {fill:#C9DBEA}
    .fil1 {fill:white}
   ]]>
  </style>
 </defs>
 <g id="Layer_x0020_1">
  <metadata id="CorelCorpID_0Corel-Layer"/>
  <path class="fil0" d="M559 13.34c-336.24,66.32 -619.45,374.28 -547.82,791.76 57.69,336.3 385.73,625.49 801.53,549.59 333.47,-60.88 612.35,-384.9 544.6,-789.33 -55.84,-333.33 -388.37,-632.88 -798.31,-552.02z"/>
  <path class="fil1" d="M454.6 766.35c65.62,6.48 325.66,-213.56 447.17,-258.15 -23.87,50.53 -269.64,261.61 -326.82,317.07l113.97 90.14c242.8,154.91 191.06,227.33 283.43,-178.06 102.11,-448.08 99.97,-364.09 -340.17,-198.83l-285.8 108.28c-47.78,18.01 -66.47,19.29 -79.7,59.87 37.61,21.28 139.21,58.7 187.92,59.68z"/>
  <path class="fil2" d="M454.6 766.35c25.16,32.05 11.52,5.11 27.5,51.16 6.82,19.65 11.33,38.97 17.21,59.37 10.13,35.16 18,92.66 40.84,114.01 27.64,-0.42 18.11,-28.99 20.91,-65.12 2.93,-37.95 6.31,-63.95 13.89,-100.5 57.18,-55.46 302.95,-266.54 326.82,-317.07 -121.51,44.59 -381.55,264.63 -447.17,258.15z"/>
  <path class="fil3" d="M540.15 990.89l16.38 20.7c26.29,-18.7 44.21,-31.18 60.32,-51.69 27.47,-34.95 21.24,-48.73 72.07,-44.49l-113.97 -90.14c-7.58,36.55 -10.96,62.55 -13.89,100.5 -2.8,36.13 6.73,64.7 -20.91,65.12z"/>
 </g>
</svg>
