<svg width="18" height="18" viewBox="0 0 18 18" fill="none" xmlns="http://www.w3.org/2000/svg">
<path d="M16.0711 7.58572C15.696 7.21064 15.1873 6.99993 14.6569 6.99993C14.1264 6.99993 13.6177 7.21064 13.2426 7.58572L7.58579 13.2426C7.21071 13.6176 7 14.1264 7 14.6568C7 15.1872 7.21071 15.6959 7.58579 16.071C7.96086 16.4461 8.46957 16.6568 9 16.6568C9.53043 16.6568 10.0391 16.4461 10.4142 16.071C10.7893 15.6959 11 15.1872 11 14.6568C11 14.1264 10.7893 13.6176 10.4142 13.2426L4.75736 7.58572C4.38229 7.21064 3.87358 6.99993 3.34315 6.99993C2.81271 6.99993 2.304 7.21064 1.92893 7.58572C1.55386 7.96079 1.34315 8.4695 1.34315 8.99993C1.34315 9.53036 1.55386 10.0391 1.92893 10.4141C2.304 10.7892 2.81271 10.9999 3.34315 10.9999C3.87358 10.9999 4.38229 10.7892 4.75736 10.4141L10.4142 4.75729C10.7893 4.38222 11 3.87351 11 3.34308C11 2.81264 10.7893 2.30393 10.4142 1.92886C10.0391 1.55379 9.53043 1.34308 9 1.34308C8.46957 1.34308 7.96086 1.55379 7.58579 1.92886C7.21071 2.30393 7 2.81264 7 3.34308C7 3.87351 7.21071 4.38222 7.58579 4.75729L13.2426 10.4141C13.6177 10.7892 14.1264 10.9999 14.6569 10.9999C15.1873 10.9999 15.696 10.7892 16.0711 10.4141C16.4461 10.0391 16.6569 9.53036 16.6569 8.99993C16.6569 8.4695 16.4461 7.96079 16.0711 7.58572Z" stroke="#001030" stroke-width="1.5" stroke-linecap="round" stroke-linejoin="round"/>
</svg>
